Coordinates
version=1
nRows=32
nColumns=22
inDegrees=yes

Units are S.I. units (second, meters, Newtons, ...)
If the header above contains a line with 'inDegrees', this indicates whether rotational values are in degrees (yes) or radians (no).

endheader
time	pelvis_tilt	pelvis_list	pelvis_rotation	pelvis_tx	pelvis_ty	pelvis_tz	hip_flexion_r	hip_adduction_r	hip_rotation_r	knee_angle_r	ankle_angle_r	subtalar_angle_r	hip_flexion_l	hip_adduction_l	hip_rotation_l	knee_angle_l	ankle_angle_l	subtalar_angle_l	lumbar_extension	lumbar_bending	lumbar_rotation
      3.73000000	      1.97048208	      6.30227732	    172.99613848	      0.08666832	      0.97806195	     -0.47423267	     -8.81605933	      2.91087065	    -12.51477648	    -16.50855922	     18.30545220	     12.87541908	     30.75071906	     -7.42178365	    -30.58004071	     -9.97432753	      9.22510831	     -1.21033236	     -4.93085271	      0.08108630	      4.63147775
      3.74000000	      1.96085949	      6.39433316	    173.11463866	      0.07590323	      0.97611514	     -0.47375464	     -9.36264835	      2.85564063	    -12.41045583	    -16.81037301	     18.21754303	     13.48172315	     30.89916688	     -7.74462142	    -31.02335642	     -9.75623584	      9.43303113	     -1.40966191	     -4.84926220	      0.01865444	      4.85007759
      3.75000000	      1.93124719	      6.50246356	    173.16173877	      0.06477363	      0.97435783	     -0.47329758	     -9.95537804	      2.79816791	    -12.15786710	    -17.09345722	     18.01464705	     14.07556864	     31.00403665	     -8.17280084	    -31.43868915	     -9.91576843	      9.62712086	     -1.66992458	     -4.74918515	     -0.04308313	      5.15429738
      3.76000000	      1.87867135	      6.59350317	    173.16931381	      0.05323160	      0.97279922	     -0.47275660	    -10.58571323	      2.69653121	    -11.80902884	    -17.37865167	     17.69071994	     14.78576480	     31.04690163	     -8.64303764	    -31.83844582	    -10.40532282	      9.77519856	     -2.02050686	     -4.62257199	     -0.12934989	      5.46181551
      3.77000000	      1.81270352	      6.65777513	    173.13684835	      0.04123001	      0.97144525	     -0.47210626	    -11.24607044	      2.53988862	    -11.37849574	    -17.65534693	     17.22475228	     15.58667518	     31.01176750	     -9.13045604	    -32.26531289	    -11.15597395	      9.88035634	     -2.45288066	     -4.44628845	     -0.24861235	      5.79841992
      3.78000000	      1.73050324	      6.70322056	    173.06739291	      0.02881901	      0.97031678	     -0.47133049	    -11.92015063	      2.33504774	    -10.87160588	    -17.95189604	     16.63469665	     16.43796440	     30.88960133	     -9.63485882	    -32.79800836	    -12.11559690	      9.86704809	     -2.92934851	     -4.23267201	     -0.38876249	      6.15320302
      3.79000000	      1.64019402	      6.72339733	    172.96374884	      0.01602318	      0.96941521	     -0.47040163	    -12.58481942	      2.07630572	    -10.29047767	    -18.28498008	     15.92867027	     17.30437051	     30.67989360	    -10.13994085	    -33.51001353	    -13.21956529	      9.71420844	     -3.42898226	     -3.97495404	     -0.55022589	      6.51415135
      3.80000000	      1.56569123	      6.66666353	    172.86724087	      0.00281683	      0.96873066	     -0.46920380	    -13.19602118	      1.71061205	     -9.73319117	    -18.67490047	     15.04482839	     18.34299264	     30.38774193	    -10.54497754	    -34.39752418	    -14.34588326	      9.37842957	     -4.06371354	     -3.63313433	     -0.78508006	      6.84004265
      3.81000000	      1.50046541	      6.57919678	    172.74472860	     -0.01064433	      0.96829319	     -0.46781456	    -13.73514602	      1.28978329	     -9.12545400	    -19.15588225	     14.05095263	     19.31199442	     30.02984546	    -10.93160858	    -35.57001339	    -15.49758616	      8.84835024	     -4.71761985	     -3.24680880	     -1.04237355	      7.17919106
      3.82000000	      1.45275789	      6.40203251	    172.66295344	     -0.02431911	      0.96812047	     -0.46606275	    -14.15259680	      0.75712000	     -8.56621167	    -19.78291278	     12.85648559	     20.43372397	     29.60588849	    -11.16363851	    -36.89694143	    -16.54323987	      8.09348020	     -5.58904824	     -2.80847815	     -1.37731919	      7.42025672
      3.83000000	      1.42633996	      6.17637537	    172.59629031	     -0.03807071	      0.96821702	     -0.46403925	    -14.42443798	      0.16145383	     -8.02528932	    -20.57754883	     11.51091019	     21.49301704	     29.15462764	    -11.31241540	    -38.36019930	    -17.51779372	      7.19047759	     -6.56117538	     -2.33914890	     -1.75273136	      7.63935697
      3.84000000	      1.42172030	      5.89563567	    172.57766938	     -0.05179258	      0.96858653	     -0.46166544	    -14.51453109	     -0.50043683	     -7.54722015	    -21.58790094	      9.97314348	     22.53315621	     28.69478561	    -11.32262912	    -39.74633231	    -18.38162737	      6.19094221	     -7.68077879	     -1.85704121	     -2.17090091	      7.80123960
      3.85000000	      1.44202594	      5.57089610	    172.63150658	     -0.06539183	      0.96920525	     -0.45892457	    -14.40164697	     -1.20649044	     -7.14744409	    -22.83657949	      8.24126138	     23.50661312	     28.26028128	    -11.17930737	    -40.88569331	    -19.14654249	      5.18726131	     -8.90480288	     -1.37568527	     -2.62064496	      7.88969098
      3.86000000	      1.48768332	      5.21568269	    172.76958311	     -0.07878278	      0.97004456	     -0.45583204	    -14.06985786	     -1.93892464	     -6.84271001	    -24.34498270	      6.32679697	     24.36211271	     27.87476407	    -10.87931978	    -41.64085716	    -19.82772340	      4.25292314	    -10.16476707	     -0.90848028	     -3.09064748	      7.90773927
      3.87000000	      1.54050848	      4.85435824	    173.01918491	     -0.09188710	      0.97109441	     -0.45237349	    -13.54080192	     -2.66608066	     -6.63735747	    -26.10678637	      4.23795466	     25.09519661	     27.53892718	    -10.42207091	    -41.89052052	    -20.43341183	      3.43926140	    -11.45388953	     -0.49416854	     -3.55812500	      7.84832211
      3.88000000	      1.58307309	      4.49936911	    173.36642001	     -0.10466254	      0.97233869	     -0.44861694	    -12.83724096	     -3.37745397	     -6.50462586	    -28.11138737	      2.04223767	     25.65774537	     27.23733365	     -9.84391409	    -41.69704434	    -20.99461040	      2.81151842	    -12.67679044	     -0.15664602	     -4.01483686	      7.73116544
      3.89000000	      1.60284743	      4.14786118	    173.80785083	     -0.11707627	      0.97374070	     -0.44461622	    -11.97816645	     -4.07994678	     -6.45544279	    -30.35358604	     -0.17015890	     26.03077423	     26.95283106	     -9.16209552	    -41.14136959	    -21.52453694	      2.35797360	    -13.66998542	      0.08708082	     -4.47033669	      7.56952622
      3.90000000	      1.55270016	      3.84249039	    174.29846168	     -0.12915523	      0.97532578	     -0.44045626	    -11.04143623	     -4.72699868	     -6.36933196	    -32.77709147	     -2.35432851	     26.27093805	     26.60192380	     -8.45554820	    -40.39119831	    -22.02114778	      2.19735589	    -14.70744076	      0.18373250	     -4.87108011	      7.38391135
      3.91000000	      1.46178994	      3.54124949	    174.85251182	     -0.14088556	      0.97700127	     -0.43613313	    -10.00423863	     -5.36212405	     -6.32074677	    -35.37103370	     -4.35064189	     26.35997381	     26.20730371	     -7.68309290	    -39.47003739	    -22.46391339	      2.21996609	    -15.38578254	      0.17571000	     -5.26568192	      7.17486869
      3.92000000	      1.31571071	      3.27002712	    175.44723724	     -0.15228313	      0.97875418	     -0.43169312	     -8.91063836	     -5.95534533	     -6.27169258	    -38.06949761	     -6.11060797	     26.37729524	     25.73961413	     -6.90621794	    -38.51553513	    -22.86540541	      2.40131509	    -15.84501010	      0.04773788	     -5.61770762	      6.95779799
      3.93000000	      1.12974152	      3.02558601	    176.05448510	     -0.16337066	      0.98053881	     -0.42719716	     -7.76464873	     -6.49605704	     -6.17613878	    -40.80960296	     -7.54678995	     26.26506432	     25.19543302	     -6.14008030	    -37.59842688	    -23.20635751	      2.73154914	    -16.25515574	     -0.16979917	     -5.92624413	      6.74111673
      3.94000000	      0.92776727	      2.81177878	    176.68537036	     -0.17414862	      0.98232611	     -0.42262062	     -6.56658008	     -6.97156513	     -6.04697034	    -43.52146671	     -8.57894833	     26.19797920	     24.58841635	     -5.37647750	    -36.70006317	    -23.44612817	      3.12526009	    -16.43856448	     -0.44394883	     -6.17923202	      6.50847700
      3.95000000	      0.72171996	      2.63718815	    177.31044013	     -0.18464396	      0.98409921	     -0.41802757	     -5.32155566	     -7.36153363	     -5.85158938	    -46.13326985	     -9.17088639	     26.03620503	     23.92417512	     -4.64750485	    -35.88433697	    -23.58952697	      3.57332693	    -16.58686452	     -0.74630970	     -6.36440043	      6.27928419
      3.96000000	      0.52486778	      2.51159974	    177.93151782	     -0.19487632	      0.98584598	     -0.41342563	     -4.03820626	     -7.64827281	     -5.59552000	    -48.57740686	     -9.30885297	     25.79065125	     23.21896012	     -3.96386925	    -35.13621039	    -23.63417306	      4.03461566	    -16.70451433	     -1.05239922	     -6.47042911	      6.04920901
      3.97000000	      0.34946535	      2.43863085	    178.54608999	     -0.20485757	      0.98756307	     -0.40881541	     -2.71778409	     -7.82909732	     -5.29276020	    -50.80528234	     -9.01090088	     25.43041474	     22.48780686	     -3.32891663	    -34.44235322	    -23.57761509	      4.47861529	    -16.82041363	     -1.33860949	     -6.49362171	      5.81839399
      3.98000000	      0.19900663	      2.41744587	    179.16167159	     -0.21461799	      0.98924448	     -0.40417437	     -1.37296995	     -7.91687989	     -4.98197114	    -52.77949510	     -8.32370064	     24.97571470	     21.73954226	     -2.74022422	    -33.78617217	    -23.42667490	      4.90766363	    -16.94911756	     -1.58978242	     -6.43357973	      5.58095998
      3.99000000	      0.07197211	      2.43626591	    179.79342219	     -0.22415887	      0.99087476	     -0.39946271	     -0.01597632	     -7.94321783	     -4.70933426	    -54.48600472	     -7.30091395	     24.47957125	     20.98560479	     -2.18461226	    -33.14742356	    -23.20094422	      5.31072929	    -17.08486896	     -1.80575795	     -6.30838216	      5.33247296
      4.00000000	     -0.03144601	      2.48117227	    180.45245319	     -0.23349885	      0.99245147	     -0.39463690	      1.34389964	     -7.93868218	     -4.50234731	    -55.91470274	     -6.03954894	     23.96510877	     20.22651810	     -1.64301187	    -32.51101234	    -22.89778605	      5.68102960	    -17.21989747	     -1.98134087	     -6.13211658	      5.06241644
      4.01000000	     -0.11839752	      2.53706477	    181.15768253	     -0.24264613	      0.99396484	     -0.38966575	      2.68977692	     -7.93411389	     -4.39044119	    -57.06583695	     -4.61966270	     23.48023686	     19.46305410	     -1.10051752	    -31.86099279	    -22.53441361	      6.02317490	    -17.33707615	     -2.12587653	     -5.92808370	      4.76047735
      4.02000000	     -0.19175312	      2.59316253	    181.92505561	     -0.25161071	      0.99540002	     -0.38450882	      4.01103629	     -7.95050703	     -4.38870728	    -57.94472430	     -3.12694582	     23.01590779	     18.69666586	     -0.54601524	    -31.18740014	    -22.12207536	      6.33936688	    -17.43178612	     -2.24364522	     -5.70894927	      4.41712647
      4.03000000	     -0.25793711	      2.64342928	    182.76884917	     -0.26039056	      0.99674599	     -0.37915472	      5.29727232	     -7.99725675	     -4.50150483	    -58.56334467	     -1.64058885	     22.54781114	     17.92745921	      0.02438786	    -30.46919319	    -21.67721542	      6.63042222	    -17.50158955	     -2.34620859	     -5.48679492	      4.02850286
      4.04000000	     -0.32283474	      2.68975572	    183.69781613	     -0.26899354	      0.99799484	     -0.37360290	      6.53815370	     -8.06838862	     -4.71907704	    -58.93164235	     -0.21607039	     22.06231137	     17.15194915	      0.60457548	    -29.69724098	    -21.21058113	      6.90421219	    -17.54474236	     -2.44277844	     -5.26331849	      3.59025032
